<svg width="362" height="688" viewBox="0 0 362 688" fill="none" xmlns="http://www.w3.org/2000/svg">
<g clip-path="url(#clip0)">
<rect y="51" width="354" height="236" rx="10" fill="#151515"/>
<g opacity="0.4">
<rect x="12" y="220" width="100" height="35" rx="5" fill="#008960"/>
</g>
<g opacity="0.4">
<rect x="130" y="220" width="100" height="35" rx="5" fill="#EC8E00"/>
</g>
<g opacity="0.4">
<rect x="244" y="220" width="100" height="35" rx="5" fill="#A000EC"/>
</g>
<rect x="234" y="180" width="110" height="26" rx="2" fill="#3A3A3A"/>
<rect x="234" y="165" width="110" height="10" rx="2" fill="#6C6C6C"/>
<rect x="12" y="180" width="110" height="26" rx="2" fill="#3A3A3A"/>
<rect x="12" y="165" width="110" height="10" rx="2" fill="#6C6C6C"/>
</g>
<circle cx="177" cy="75" r="75" fill="#535353"/>
<g filter="url(#filter0_d)">
<rect x="5" y="428" width="353" height="252" rx="10" fill="#1E1E1E"/>
<path d="M322.984 446.676H320.781L320.32 448H319.293L321.441 442.312H322.328L324.48 448H323.449L322.984 446.676ZM321.059 445.879H322.707L321.883 443.52L321.059 445.879ZM325.129 448V442.312H326.809C327.311 442.312 327.757 442.424 328.145 442.648C328.535 442.872 328.837 443.19 329.051 443.602C329.264 444.013 329.371 444.484 329.371 445.016V445.301C329.371 445.84 329.263 446.314 329.047 446.723C328.833 447.132 328.527 447.447 328.129 447.668C327.733 447.889 327.279 448 326.766 448H325.129ZM326.117 443.109V447.211H326.762C327.28 447.211 327.677 447.049 327.953 446.727C328.232 446.401 328.374 445.935 328.379 445.328V445.012C328.379 444.395 328.245 443.923 327.977 443.598C327.708 443.272 327.319 443.109 326.809 443.109H326.117Z" fill="white"/>
<circle cx="156" cy="670" r="5" fill="#0042EC"/>
<circle cx="173" cy="670" r="5" fill="black"/>
<circle cx="190" cy="670" r="5" fill="black"/>
<circle cx="207" cy="670" r="5" fill="black"/>
</g>
<rect x="52" y="299" width="60" height="60" rx="10" fill="#0042EC" fill-opacity="0.55"/>
<rect x="147" y="299" width="60" height="60" rx="10" fill="#0042EC" fill-opacity="0.55"/>
<rect x="242" y="299" width="60" height="60" rx="10" fill="#0042EC" fill-opacity="0.55"/>
<defs>
<filter id="filter0_d" x="1" y="428" width="361" height="260" filterUnits="userSpaceOnUse" color-interpolation-filters="sRGB">
<feFlood flood-opacity="0" result="BackgroundImageFix"/>
<feColorMatrix in="SourceAlpha" type="matrix" values="0 0 0 0 0 0 0 0 0 0 0 0 0 0 0 0 0 0 127 0"/>
<feOffset dy="4"/>
<feGaussianBlur stdDeviation="2"/>
<feColorMatrix type="matrix" values="0 0 0 0 0 0 0 0 0 0 0 0 0 0 0 0 0 0 0.25 0"/>
<feBlend mode="normal" in2="BackgroundImageFix" result="effect1_dropShadow"/>
<feBlend mode="normal" in="SourceGraphic" in2="effect1_dropShadow" result="shape"/>
</filter>
<clipPath id="clip0">
<rect y="51" width="354" height="216" rx="20" fill="white"/>
</clipPath>
</defs>
</svg>
