<svg width="63" height="133" viewBox="0 0 63 133" fill="none" xmlns="http://www.w3.org/2000/svg">
<path d="M60.3173 31.0334C60.3173 46.9485 47.4155 59.85 31.5007 59.85C30.3894 59.851 29.2789 59.7845 28.1757 59.6505C13.6712 57.9347 2.74414 45.639 2.74414 31.0334C2.74414 16.4278 13.6712 4.13182 28.1757 2.41606C29.2789 2.28203 30.3894 2.21553 31.5007 2.21656C39.1433 2.21656 46.4731 5.25271 51.8772 10.6569C57.2814 16.061 60.3173 23.3906 60.3173 31.0334Z" fill="#F57C00"/>
<path d="M53.6668 31.0334C53.6632 45.6595 42.7034 57.963 28.1752 59.6505C13.6707 57.9347 2.74365 45.639 2.74365 31.0334C2.74365 16.4278 13.6707 4.1318 28.1752 2.41605C30.9009 2.71893 33.5672 3.42108 36.0887 4.49963C45.9047 8.65328 52.6244 17.8882 53.5561 28.5061C53.6227 29.3485 53.6668 30.191 53.6668 31.0334Z" fill="#FF9801"/>
<path d="M53.2235 50.7174C54.4138 48.6079 54.3629 46.0177 53.0905 43.9565C52.073 42.301 50.2679 41.2934 48.3246 41.2965C47.125 41.2934 45.9574 41.6828 44.9996 42.4049C44.9775 42.4049 44.9775 42.427 44.9552 42.427C41.0527 45.2579 36.3188 46.7087 31.5001 46.55C30.4034 46.5531 29.3077 46.4866 28.2195 46.3505H28.1086C24.4649 45.9603 20.991 44.6059 18.045 42.427C16.0695 40.9242 13.3363 40.9152 11.3506 42.4049C10.7776 42.8275 10.289 43.3538 9.9097 43.9565C8.62931 46.0154 8.57814 48.6097 9.7767 50.7174C15.9833 61.6013 32.9631 96.8463 7.1167 117.483H55.8833C30.0371 96.8461 47.0167 61.6011 53.2235 50.7174Z" fill="#FF5722"/>
<path d="M55.8837 117.483H49.2337C23.3872 96.8463 40.3671 61.6013 46.5737 50.7174C47.7639 48.6079 47.713 46.0177 46.4407 43.9565C46.0617 43.3538 45.5728 42.8276 44.9997 42.4049C45.9575 41.6828 47.1251 41.2936 48.3247 41.2965C50.268 41.2934 52.0732 42.301 53.0907 43.9565C54.363 46.0177 54.4139 48.6076 53.2237 50.7174C47.0168 61.6011 30.0372 96.8461 55.8837 117.483Z" fill="#D84315"/>
<path d="M31.5004 46.55C36.3972 46.55 40.367 42.5803 40.367 37.6834C40.367 32.7865 36.3972 28.8168 31.5004 28.8168C26.6035 28.8168 22.6338 32.7865 22.6338 37.6834C22.6338 42.5803 26.6035 46.55 31.5004 46.55Z" fill="#FFEB3A"/>
<path d="M60.2282 28.994C57.9924 29.1833 55.7405 29.0187 53.5561 28.5064C52.6243 17.8885 45.9047 8.65355 36.0887 4.4999C35.9778 3.6354 35.9557 2.92598 35.9336 2.54932C49.2055 4.6238 59.2837 15.594 60.2282 28.994Z" fill="#FDD834"/>
<path d="M53.5558 28.5064C44.6669 26.2454 47.9254 17.29 42.5833 15.5168C37.8397 13.9429 36.4874 7.86933 36.0884 4.49991C45.9044 8.6533 52.624 17.8885 53.5558 28.5064Z" fill="#FFEB3A"/>
<path d="M18.8207 18.9746C17.7652 19.2559 16.7405 19.6419 15.7617 20.1272C14.7787 20.7109 13.968 21.5444 13.4121 22.5432C13.0575 23.2303 12.8136 23.9842 12.4367 24.6712C11.3454 26.2096 9.49897 27.0265 7.62658 26.7992C6.09293 26.773 4.56135 26.6696 3.03809 26.4888C4.63746 16.5224 11.3288 8.11611 20.6827 4.32224C21.5209 6.85417 22.1584 9.44845 22.5891 12.0807C23.3364 15.0116 21.6911 18.0215 18.8207 18.9746Z" fill="#FFEB3A"/>
<path d="M60.3168 122.271V130.783H2.68359V122.271C2.68853 119.629 4.82926 117.488 7.47159 117.483H55.529C58.1711 117.488 60.3118 119.629 60.3168 122.271Z" fill="#FFB301"/>
<path d="M53.6667 122.271V130.783H2.68359V122.271C2.68853 119.629 4.82926 117.488 7.47159 117.483H48.879C51.5211 117.488 53.6618 119.629 53.6667 122.271Z" fill="#FEC108"/>
<path d="M2.68365 133H60.3171C61.5413 133 62.5337 132.008 62.5337 130.783V121.917C62.5196 118.613 60.082 115.82 56.8102 115.36C39.2586 101.003 40.8102 82.5642 46.1061 68.4508C46.318 68.1539 46.4521 67.8087 46.4962 67.4466C49.0266 61.1509 52.3098 55.1846 56.2741 49.6778C56.2917 49.6578 56.3185 49.6513 56.3362 49.629L57.0432 48.6759C60.6301 43.4928 62.5459 37.3366 62.5339 31.0334C62.5339 30.3284 62.4786 29.6346 62.4318 28.9387C62.4331 28.915 62.4331 28.8914 62.4318 28.8678C62.4318 28.8457 62.4186 28.8277 62.4162 28.8057C61.4169 14.576 50.8195 2.87353 36.7584 0.472254C36.4701 0.362893 36.162 0.315096 35.8539 0.3325H35.8407C34.4031 0.121051 32.9528 0.0101309 31.5002 0C16.2974 0.00337695 3.34138 11.0322 0.910233 26.0392C0.886335 26.1031 0.865554 26.1683 0.84815 26.2342C0.84815 26.2875 0.861398 26.334 0.84815 26.3849C0.606048 27.9227 0.478503 29.4764 0.466813 31.0332C0.460319 37.374 2.40103 43.564 6.02632 48.7666L6.66482 49.6267C6.68041 49.6467 6.70249 49.6532 6.71807 49.6732C10.8811 55.4563 19.6523 69.3595 20.4171 84.4747V86.4497C20.4285 86.5311 20.4449 86.6118 20.4659 86.6913C20.468 97.9576 15.1828 108.572 6.19049 115.36C2.91874 115.82 0.481098 118.613 0.467071 121.917V130.783C0.466811 132.008 1.45938 133 2.68365 133ZM57.7389 26.8216C50.6987 26.6686 49.6524 23.5807 48.4821 20.0497C47.6686 17.596 46.6557 14.5414 43.2863 13.4174C40.1676 12.3734 38.9417 8.27691 38.4607 5.37975C48.5546 8.09897 56.1078 16.4967 57.7457 26.8216H57.7389ZM12.6963 12.2292C14.6326 10.2953 16.8546 8.66994 19.2842 7.41033C19.7604 9.04582 20.1306 10.7104 20.3927 12.3934C20.7275 14.7498 19.9604 16.2572 18.1449 16.8622L17.6726 17.0108C16.6196 17.304 15.6008 17.709 14.6337 18.2189C13.2909 19.0151 12.1874 20.1583 11.4393 21.5283C11.251 21.8941 11.0868 22.2775 10.9229 22.6612C10.7974 22.9783 10.6561 23.289 10.4995 23.5922C10.0051 24.4788 8.50448 24.6206 7.65557 24.5829C7.02823 24.5829 6.38765 24.5429 5.7359 24.5032C6.90043 19.8565 9.30638 15.614 12.6963 12.2292ZM24.7749 86.829C24.8113 86.7051 24.8365 86.5783 24.8502 86.45V62.0666C24.8502 60.8423 23.8577 59.85 22.6337 59.85C21.4094 59.85 20.4171 60.8426 20.4171 62.0666V65.7197C17.7745 59.0476 14.3321 52.7207 10.1649 46.8781C9.9854 46.6565 9.84123 46.4591 9.72148 46.2819L9.58406 46.0936L9.5664 46.078C6.52273 41.6519 4.89556 36.4054 4.90023 31.0334C4.90023 30.3152 4.94907 29.606 5.0044 28.8966C5.89098 28.9607 6.75106 29.0031 7.5979 29.0163H7.75532C10.4036 29.2481 12.9597 27.9825 14.3809 25.7358C14.6142 25.2962 14.8243 24.845 15.0103 24.3837C15.1277 24.1021 15.2454 23.8228 15.3496 23.6166C15.7052 22.9791 16.22 22.4445 16.8435 22.065C17.5308 21.7224 18.2504 21.4486 18.9915 21.247L19.5211 21.0808C23.4311 19.8204 25.7202 15.7709 24.7835 11.7708C24.4645 9.72043 24.006 7.694 23.4114 5.70601C26.0257 4.86645 28.7542 4.43706 31.5 4.43368C32.2936 4.43368 33.0783 4.48018 33.8607 4.54902C34.2862 8.52135 35.8866 15.6145 41.8828 17.6274C43.0333 18.0108 43.472 19.0328 44.2745 21.4488C45.5689 25.3523 47.4974 31.1223 58.0997 31.2553C58.0743 36.5428 56.4627 41.701 53.4735 46.0627C53.4735 46.0759 53.447 46.0827 53.4359 46.0959L53.2985 46.2843C53.1678 46.4617 53.0236 46.6588 52.7665 46.9825C48.5983 52.8267 45.1592 59.1577 42.5255 65.8353C39.3667 70.018 29.2831 84.7257 29.2831 101.967C29.2831 103.191 30.2757 104.183 31.4997 104.183C32.7237 104.183 33.7163 103.191 33.7163 101.967C33.8571 94.809 35.5053 87.7613 38.5531 81.283C36.7672 93.8073 41.0643 106.432 50.1197 115.267H12.8802C20.5776 107.82 24.8783 97.5384 24.7749 86.829ZM4.90023 121.917C4.90023 120.692 5.8928 119.7 7.11681 119.7H55.8834C57.1077 119.7 58.1 120.693 58.1 121.917V128.567H4.90023V121.917Z" fill="black"/>
<path d="M27.067 121.917H22.6336C21.4093 121.917 20.417 122.909 20.417 124.133C20.417 125.357 21.4093 126.35 22.6336 126.35H27.067C28.2913 126.35 29.2836 125.357 29.2836 124.133C29.2836 122.909 28.2913 121.917 27.067 121.917Z" fill="black"/>
<path d="M44.8004 121.917H35.9339C34.7096 121.917 33.7173 122.909 33.7173 124.133C33.7173 125.357 34.7098 126.35 35.9339 126.35H44.8004C46.0247 126.35 47.017 125.357 47.017 124.133C47.017 122.909 46.0247 121.917 44.8004 121.917Z" fill="black"/>
<path d="M51.2288 38.6742C51.5829 37.9653 51.5317 37.1216 51.0951 36.4607C50.6581 35.7999 49.902 35.4219 49.1112 35.47C48.3205 35.518 47.6152 35.9838 47.2612 36.6927C45.9325 38.8908 44.0297 40.6848 41.7573 41.882C43.6707 37.2481 42.2352 31.9068 38.2569 28.8563C34.2784 25.8059 28.7477 25.8059 24.7691 28.8563C20.7905 31.9068 19.3553 37.2481 21.2688 41.882C18.9917 40.6803 17.0855 38.8799 15.756 36.675C15.3996 35.9674 14.6928 35.5037 13.9018 35.4585C13.1108 35.4133 12.356 35.7936 11.9211 36.456C11.4865 37.1184 11.4382 37.9624 11.7946 38.67C11.9941 39.0867 16.9972 48.7668 31.5007 48.7668C46.0042 48.7668 51.007 39.0864 51.2288 38.6742ZM24.8504 37.6834C24.8504 34.0106 27.8279 31.0334 31.5004 31.0334C35.173 31.0334 38.1504 34.0109 38.1504 37.6834C38.1504 41.356 35.173 44.3334 31.5004 44.3334C27.8276 44.3334 24.8504 41.356 24.8504 37.6834Z" fill="black"/>
</svg>
