<svg width="63" height="133" viewBox="0 0 63 133" fill="none" xmlns="http://www.w3.org/2000/svg">
<path d="M59.8505 31.0334C59.8505 46.9485 46.9487 59.85 31.0339 59.85C29.9226 59.851 28.8121 59.7845 27.7089 59.6505C13.2044 57.9347 2.27734 45.639 2.27734 31.0334C2.27734 16.4278 13.2044 4.13182 27.7089 2.41606C28.8121 2.28203 29.9226 2.21553 31.0339 2.21656C38.6765 2.21656 46.0063 5.25271 51.4104 10.6569C56.8146 16.061 59.8505 23.3906 59.8505 31.0334Z" fill="#D1D1D1"/>
<path d="M53.2 31.0334C53.1964 45.6595 42.2366 57.9631 27.7084 59.6505C13.2039 57.9347 2.27686 45.639 2.27686 31.0334C2.27686 16.4278 13.2039 4.13183 27.7084 2.41608C30.4341 2.71896 33.1004 3.42111 35.6219 4.49966C45.438 8.65331 52.1576 17.8882 53.0894 28.5062C53.1559 29.3486 53.2 30.191 53.2 31.0334Z" fill="#B7B7B7"/>
<path d="M52.7567 50.7174C53.947 48.6078 53.8961 46.0177 52.6237 43.9565C51.6062 42.301 49.8011 41.2933 47.8578 41.2965C46.6582 41.2933 45.4906 41.6827 44.5328 42.4049C44.5107 42.4049 44.5107 42.427 44.4884 42.427C40.5859 45.2579 35.852 46.7087 31.0333 46.55C29.9366 46.5531 28.8409 46.4866 27.7527 46.3505H27.6418C23.9981 45.9603 20.5242 44.6059 17.5782 42.427C15.6027 40.9242 12.8695 40.9151 10.8838 42.4049C10.3108 42.8275 9.82216 43.3538 9.4429 43.9565C8.16252 46.0154 8.11135 48.6096 9.3099 50.7174C15.5165 61.6013 32.4963 96.8463 6.6499 117.483H55.4165C29.5703 96.8461 46.5499 61.601 52.7567 50.7174Z" fill="#888888"/>
<path d="M55.4169 117.483H48.7669C22.9204 96.8463 39.9003 61.6013 46.1069 50.7174C47.2971 48.6078 47.2462 46.0177 45.9739 43.9565C45.5949 43.3538 45.106 42.8275 44.5329 42.4049C45.4907 41.6827 46.6583 41.2936 47.8579 41.2965C49.8012 41.2933 51.6064 42.301 52.6239 43.9565C53.8962 46.0177 53.9471 48.6076 52.7569 50.7174C46.55 61.601 29.5704 96.8461 55.4169 117.483Z" fill="white"/>
<path d="M31.0336 46.55C35.9305 46.55 39.9002 42.5803 39.9002 37.6834C39.9002 32.7865 35.9305 28.8168 31.0336 28.8168C26.1367 28.8168 22.167 32.7865 22.167 37.6834C22.167 42.5803 26.1367 46.55 31.0336 46.55Z" fill="white" fill-opacity="0.63"/>
<path d="M59.7614 28.994C57.5256 29.1833 55.2737 29.0187 53.0893 28.5064C52.1575 17.8885 45.4379 8.65355 35.6219 4.4999C35.511 3.6354 35.4889 2.92598 35.4668 2.54932C48.7387 4.6238 58.8169 15.594 59.7614 28.994Z" fill="#B3B3B3"/>
<path d="M53.089 28.5064C44.2001 26.2454 47.4586 17.29 42.1165 15.5168C37.3729 13.9429 36.0206 7.8693 35.6216 4.49988C45.4376 8.65327 52.1572 17.8885 53.089 28.5064Z" fill="white" fill-opacity="0.63"/>
<path d="M18.3539 18.9745C17.2984 19.2559 16.2737 19.6419 15.2949 20.1271C14.3119 20.7108 13.5012 21.5444 12.9453 22.5432C12.5907 23.2303 12.3468 23.9841 11.9699 24.6712C10.8786 26.2095 9.03218 27.0265 7.15979 26.7992C5.62613 26.773 4.09455 26.6696 2.57129 26.4888C4.17067 16.5224 10.862 8.11608 20.2159 4.3222C21.0541 6.85414 21.6916 9.44842 22.1223 12.0806C22.8696 15.0116 21.2243 18.0215 18.3539 18.9745Z" fill="white" fill-opacity="0.63"/>
<path d="M59.85 122.271V130.783H2.2168V122.271C2.22173 119.629 4.36246 117.488 7.0048 117.483H55.0622C57.7043 117.488 59.845 119.629 59.85 122.271Z" fill="white"/>
<path d="M53.2 122.271V130.783H2.2168V122.271C2.22173 119.629 4.36246 117.488 7.00479 117.483H48.4122C51.0543 117.488 53.195 119.629 53.2 122.271Z" fill="white"/>
<path d="M2.21686 133H59.8503C61.0745 133 62.0669 132.008 62.0669 130.783V121.917C62.0528 118.613 59.6152 115.82 56.3434 115.36C38.7919 101.003 40.3434 82.5642 45.6393 68.4508C45.8512 68.1539 45.9853 67.8087 46.0294 67.4466C48.5598 61.1509 51.843 55.1846 55.8073 49.6778C55.8249 49.6578 55.8517 49.6513 55.8694 49.629L56.5764 48.6759C60.1633 43.4928 62.0791 37.3366 62.0671 31.0334C62.0671 30.3284 62.0118 29.6346 61.965 28.9387C61.9663 28.915 61.9663 28.8914 61.965 28.8678C61.965 28.8457 61.9518 28.8277 61.9494 28.8057C60.9501 14.576 50.3527 2.87353 36.2916 0.472254C36.0033 0.362893 35.6952 0.315096 35.3871 0.3325H35.3739C33.9363 0.121051 32.486 0.0101309 31.0334 0C15.8307 0.00337695 2.87458 11.0322 0.443436 26.0392C0.419538 26.1031 0.398757 26.1683 0.381353 26.2342C0.381353 26.2875 0.394601 26.334 0.381353 26.3849C0.139251 27.9227 0.0117057 29.4764 1.62453e-05 31.0332C-0.0064779 37.374 1.93423 43.564 5.55952 48.7666L6.19802 49.6267C6.21361 49.6467 6.23569 49.6532 6.25128 49.6732C10.4143 55.4563 19.1855 69.3595 19.9503 84.4747V86.4497C19.9617 86.531 19.9781 86.6118 19.9991 86.6913C20.0012 97.9576 14.716 108.572 5.72369 115.36C2.45194 115.82 0.0143012 118.613 0.000273886 121.917V130.783C1.41207e-05 132.008 0.99258 133 2.21686 133ZM57.2721 26.8216C50.2319 26.6686 49.1856 23.5807 48.0154 20.0497C47.2018 17.596 46.1889 14.5414 42.8195 13.4174C39.7008 12.3734 38.4749 8.27691 37.9939 5.37975C48.0878 8.09897 55.641 16.4967 57.2789 26.8216H57.2721V26.8216ZM12.2295 12.2292C14.1658 10.2953 16.3879 8.66994 18.8174 7.41033C19.2936 9.04582 19.6638 10.7104 19.9259 12.3934C20.2607 14.7498 19.4936 16.2572 17.6781 16.8622L17.2058 17.0108C16.1528 17.304 15.134 17.709 14.1669 18.2189C12.8241 19.0151 11.7206 20.1583 10.9725 21.5283C10.7842 21.8941 10.62 22.2775 10.4561 22.6612C10.3306 22.9783 10.1893 23.289 10.0327 23.5922C9.53835 24.4788 8.03768 24.6206 7.18877 24.5829C6.56144 24.5829 5.92085 24.5429 5.2691 24.5032C6.43363 19.8565 8.83958 15.614 12.2295 12.2292ZM24.3081 86.829C24.3445 86.7051 24.3697 86.5783 24.3834 86.45V62.0666C24.3834 60.8423 23.3909 59.85 22.1669 59.85C20.9426 59.85 19.9503 60.8426 19.9503 62.0666V65.7197C17.3077 59.0476 13.8653 52.7207 9.69811 46.8781C9.51861 46.6565 9.37444 46.4591 9.25469 46.2819L9.11727 46.0936L9.09961 46.078C6.05593 41.6519 4.42876 36.4054 4.43344 31.0334C4.43344 30.3152 4.48227 29.606 4.5376 28.8966C5.42418 28.9607 6.28427 29.0031 7.1311 29.0163H7.28852C9.93683 29.2481 12.4929 27.9825 13.9141 25.7358C14.1474 25.2962 14.3575 24.845 14.5435 24.3837C14.6609 24.1021 14.7786 23.8228 14.8828 23.6166C15.2384 22.9791 15.7532 22.4445 16.3767 22.065C17.064 21.7224 17.7836 21.4486 18.5247 21.247L19.0543 21.0808C22.9643 19.8204 25.2534 15.7709 24.3167 11.7708C23.9977 9.72043 23.5392 7.694 22.9446 5.70601C25.5589 4.86645 28.2875 4.43706 31.0332 4.43368C31.8268 4.43368 32.6115 4.48018 33.3939 4.54902C33.8194 8.52135 35.4198 15.6145 41.416 17.6274C42.5665 18.0108 43.0053 19.0328 43.8077 21.4488C45.1021 25.3523 47.0306 31.1223 57.6329 31.2553C57.6075 36.5428 55.9959 41.701 53.0067 46.0627C53.0067 46.0759 52.9803 46.0827 52.9691 46.0959L52.8317 46.2843C52.701 46.4617 52.5568 46.6588 52.2997 46.9825C48.1315 52.8267 44.6924 59.1577 42.0587 65.8353C38.8999 70.018 28.8163 84.7257 28.8163 101.967C28.8163 103.191 29.8089 104.183 31.0329 104.183C32.2569 104.183 33.2495 103.191 33.2495 101.967C33.3903 94.809 35.0385 87.7613 38.0863 81.283C36.3004 93.8073 40.5975 106.432 49.6529 115.267H12.4134C20.1108 107.82 24.4115 97.5384 24.3081 86.829ZM4.43344 121.917C4.43344 120.692 5.426 119.7 6.65001 119.7H55.4166C56.6409 119.7 57.6332 120.693 57.6332 121.917V128.567H4.43344V121.917Z" fill="#460000"/>
<path d="M26.6002 121.917H22.1668C20.9425 121.917 19.9502 122.909 19.9502 124.133C19.9502 125.357 20.9425 126.35 22.1668 126.35H26.6002C27.8245 126.35 28.8168 125.357 28.8168 124.133C28.8168 122.909 27.8245 121.917 26.6002 121.917Z" fill="#460000"/>
<path d="M44.3336 121.917H35.4671C34.2428 121.917 33.2505 122.909 33.2505 124.133C33.2505 125.357 34.243 126.35 35.4671 126.35H44.3336C45.5579 126.35 46.5502 125.357 46.5502 124.133C46.5502 122.909 45.5579 121.917 44.3336 121.917Z" fill="#460000"/>
<path d="M50.762 38.6741C51.1161 37.9652 51.0649 37.1215 50.6283 36.4607C50.1913 35.7998 49.4352 35.4219 48.6444 35.4699C47.8537 35.518 47.1485 35.9838 46.7944 36.6927C45.4657 38.8908 43.5629 40.6847 41.2905 41.882C43.2039 37.248 41.7684 31.9067 37.7901 28.8563C33.8116 25.8059 28.2809 25.8059 24.3023 28.8563C20.3238 31.9067 18.8885 37.248 20.802 41.882C18.5249 40.6803 16.6187 38.8799 15.2892 36.675C14.9328 35.9674 14.226 35.5037 13.435 35.4585C12.644 35.4133 11.8892 35.7936 11.4543 36.456C11.0197 37.1184 10.9714 37.9624 11.3278 38.67C11.5273 39.0867 16.5304 48.7668 31.0339 48.7668C45.5374 48.7668 50.5402 39.0864 50.762 38.6741ZM24.3836 37.6834C24.3836 34.0106 27.3611 31.0334 31.0336 31.0334C34.7062 31.0334 37.6836 34.0108 37.6836 37.6834C37.6836 41.356 34.7062 44.3334 31.0336 44.3334C27.3608 44.3334 24.3836 41.356 24.3836 37.6834Z" fill="#460000"/>
</svg>
