<svg width="1025" height="976" viewBox="0 0 1025 976" fill="none" xmlns="http://www.w3.org/2000/svg">
<path d="M372.9 491.476C368.42 491.476 364.501 488.116 363.621 483.316C323.621 249.876 246.26 107.236 245.46 105.876C242.9 101.156 244.42 95.0758 248.9 92.3558C253.38 89.6358 259.14 91.2358 261.78 95.9558C262.58 97.3958 341.54 242.676 382.18 479.796C383.06 485.156 379.7 490.276 374.58 491.236C374.02 491.476 373.46 491.476 372.9 491.476V491.476Z" fill="#272727"/>
<path d="M474.9 491.476C470.42 491.476 466.5 488.116 465.62 483.316C425.62 249.876 348.26 107.236 347.46 105.876C344.9 101.156 346.42 95.0758 350.9 92.3558C355.38 89.6358 361.14 91.2358 363.78 95.9558C364.58 97.3958 443.54 242.676 484.18 479.796C485.06 485.156 481.7 490.276 476.58 491.236C476.02 491.476 475.46 491.476 474.9 491.476V491.476Z" fill="#272727"/>
<path d="M568.401 491.476C563.921 491.476 559.92 488.116 559.12 483.316C519.12 249.876 441.76 107.236 440.96 105.876C438.4 101.156 439.92 95.0758 444.4 92.3558C448.88 89.6358 454.64 91.2358 457.28 95.9558C458.08 97.3958 537.04 242.676 577.6 479.796C578.56 485.156 575.12 490.276 570 491.236C569.52 491.476 568.881 491.476 568.401 491.476V491.476Z" fill="#272727"/>
<path d="M181.035 491.474C180.475 491.474 179.915 491.394 179.355 491.314C174.235 490.354 170.795 485.234 171.755 479.874C212.395 242.754 291.355 97.474 292.155 96.034C294.715 91.314 300.475 89.714 305.035 92.434C309.515 95.154 311.035 101.234 308.475 105.954C307.675 107.314 230.315 249.954 190.315 483.394C189.515 488.114 185.515 491.474 181.035 491.474V491.474Z" fill="#272727"/>
<path d="M275.357 491.479C274.797 491.479 274.237 491.4 273.677 491.32C268.557 490.36 265.197 485.24 266.077 479.88C306.717 242.76 385.677 97.4795 386.477 96.0395C387.061 94.9317 387.864 93.9545 388.838 93.1678C389.812 92.3812 390.936 91.8016 392.142 91.4646C393.348 91.1276 394.609 91.0402 395.85 91.2078C397.091 91.3755 398.284 91.7946 399.357 92.4395C403.837 95.1595 405.437 101.239 402.797 105.959C401.997 107.319 324.637 249.96 284.637 483.4C283.757 488.12 279.757 491.479 275.357 491.479Z" fill="#272727"/>
<path d="M376.482 491.479C375.922 491.479 375.362 491.4 374.802 491.32C369.682 490.36 366.322 485.24 367.202 479.88C407.842 242.76 486.802 97.4795 487.602 96.0395C488.186 94.9317 488.989 93.9545 489.963 93.1678C490.937 92.3812 492.061 91.8016 493.267 91.4646C494.473 91.1276 495.734 91.0402 496.975 91.2078C498.216 91.3755 499.409 91.7946 500.482 92.4395C504.962 95.1595 506.562 101.239 503.922 105.959C503.122 107.319 425.762 249.96 385.762 483.4C384.962 488.12 380.962 491.479 376.482 491.479Z" fill="#272727"/>
<path d="M474.972 491.474C474.412 491.474 473.852 491.394 473.292 491.314C468.172 490.354 464.732 485.234 465.692 479.874C506.332 242.834 581.452 97.6344 582.252 96.1944C584.732 91.3944 590.492 89.6344 595.052 92.2744C599.612 94.9144 601.292 100.914 598.812 105.714C598.092 107.154 524.332 249.794 484.332 483.394C483.372 488.114 479.372 491.474 474.972 491.474V491.474Z" fill="#272727"/>
<path d="M568.41 491.474C567.85 491.474 567.29 491.394 566.73 491.314C561.61 490.354 558.17 485.234 559.13 479.874C599.77 242.754 678.73 97.474 679.53 96.034C682.17 91.314 687.93 89.714 692.41 92.434C696.89 95.154 698.41 101.234 695.85 105.954C695.05 107.314 617.69 249.954 577.69 483.394C576.81 488.114 572.81 491.474 568.41 491.474V491.474Z" fill="#272727"/>
<path d="M665.441 491.474C664.881 491.474 664.321 491.394 663.761 491.314C658.641 490.354 655.201 485.234 656.161 479.874C696.801 242.754 775.761 97.474 776.561 96.034C779.201 91.314 784.881 89.714 789.441 92.434C793.921 95.154 795.441 101.234 792.881 105.954C792.081 107.314 714.721 249.954 674.721 483.394C673.841 488.114 669.841 491.474 665.441 491.474V491.474Z" fill="#272727"/>
<path d="M762.472 491.483C761.912 491.483 761.352 491.403 760.792 491.323C755.672 490.363 752.232 485.243 753.192 479.883C781.112 316.923 826.952 197.883 851.832 141.483C854.072 136.523 859.592 134.363 864.312 136.683C869.032 139.003 871.112 144.843 868.952 149.803C844.472 205.403 799.272 322.603 771.752 483.403C770.872 488.123 766.952 491.483 762.472 491.483V491.483Z" fill="#272727"/>
<path d="M665.369 491.476C660.889 491.476 656.889 488.116 656.089 483.316C616.089 249.876 538.729 107.236 537.929 105.876C535.369 101.156 536.889 95.0758 541.369 92.3558C545.849 89.6358 551.609 91.2358 554.249 95.9558C555.049 97.3958 634.009 242.676 674.649 479.796C675.609 485.156 672.169 490.276 667.049 491.236C666.489 491.476 665.929 491.476 665.369 491.476V491.476Z" fill="#272727"/>
<path d="M762.494 491.476C758.014 491.476 754.014 488.116 753.214 483.316C713.214 249.876 635.854 107.236 635.054 105.876C632.494 101.156 634.014 95.0758 638.494 92.3558C642.974 89.6358 648.734 91.2358 651.374 95.9558C652.174 97.3958 731.134 242.676 771.774 479.796C772.734 485.156 769.294 490.276 764.174 491.236C763.614 491.476 763.054 491.476 762.494 491.476V491.476Z" fill="#272727"/>
<path d="M856.155 491.476C851.675 491.476 847.675 488.116 846.875 483.316C806.875 249.876 729.515 107.236 728.715 105.876C726.075 101.156 727.675 95.0758 732.155 92.3558C736.635 89.6358 742.395 91.2358 745.035 95.9558C745.835 97.3958 824.795 242.676 865.435 479.796C866.395 485.156 862.955 490.276 857.835 491.236C857.275 491.476 856.715 491.476 856.155 491.476V491.476Z" fill="#272727"/>
<path d="M275.275 491.476C270.795 491.476 266.875 488.116 265.995 483.316C225.995 249.876 148.635 107.236 147.835 105.876C145.275 101.156 146.795 95.0758 151.275 92.3558C155.755 89.6358 161.515 91.2358 164.155 95.9558C164.955 97.3958 243.915 242.676 284.555 479.796C285.435 485.156 282.075 490.276 276.955 491.236C276.395 491.476 275.835 491.476 275.275 491.476V491.476Z" fill="#272727"/>
<path d="M181.048 502.993C176.568 502.993 172.648 499.633 171.768 494.833C155.448 399.713 131.368 308.753 100.088 224.513C98.2479 219.473 100.648 213.713 105.448 211.713C110.328 209.713 115.768 212.273 117.608 217.313C149.288 302.753 173.688 394.913 190.248 491.313C191.208 496.673 187.768 501.793 182.648 502.753C182.168 502.913 181.608 502.993 181.048 502.993V502.993Z" fill="#272727"/>
<path d="M856.232 503.001C855.672 503.001 855.112 502.921 854.552 502.841C849.432 501.881 846.072 496.761 846.952 491.401C863.512 395.001 887.912 302.841 919.592 217.401C921.512 212.281 926.952 209.801 931.752 211.801C936.632 213.801 939.032 219.481 937.112 224.601C905.912 308.841 881.752 399.801 865.512 494.921C864.632 499.641 860.712 503.001 856.232 503.001Z" fill="#272727"/>
<path d="M775.846 509.399C762.886 508.839 752.806 497.399 753.366 483.799C764.326 213.559 857.926 64.1187 861.926 57.8787C869.206 46.5187 883.846 43.4787 894.566 50.9987C905.366 58.5187 908.246 73.8787 900.966 85.2387C900.086 86.6787 810.726 230.439 800.326 485.719C799.846 499.319 788.806 509.959 775.846 509.399Z" fill="black"/>
<path d="M262.253 509.401C275.213 508.841 285.293 497.401 284.733 483.801C273.773 213.561 180.173 64.0405 176.173 57.8005C168.893 46.4405 154.253 43.4006 143.453 50.9206C132.653 58.4406 129.773 73.8006 137.053 85.1606C137.933 86.6006 227.293 230.361 237.693 485.641C238.253 499.321 249.213 509.961 262.253 509.401Z" fill="black"/>
<path d="M961.119 559.16C959.439 559.16 957.759 559 955.999 558.6C540.319 466.6 73.6786 557.8 68.9586 558.68C56.2386 561.24 43.8386 553 41.2786 540.2C38.7186 527.4 46.9586 515.08 59.7586 512.52C64.4786 511.56 540.959 418.44 966.159 512.6C978.879 515.4 986.879 527.96 983.999 540.68C982.875 545.913 979.99 550.602 975.826 553.965C971.662 557.328 966.471 559.162 961.119 559.16V559.16Z" fill="#272727"/>
<path d="M974.087 611.558C937.767 611.798 937.767 605.718 927.927 573.318L843.847 135.078V130.598C843.847 114.038 816.727 94.4375 793.847 94.4375H231.607C208.727 94.4375 181.607 114.038 181.607 130.598V135.078L97.6065 573.398C91.8465 613.638 91.8465 613.638 42.4865 610.758C16.5665 609.238 -11.7535 611.638 5.12651 555.638L87.6065 125.638C113.047 0.437515 164.967 0.4375 231.687 0.4375H793.927C860.647 0.4375 909.847 0.437515 938.007 125.638L1020.49 555.638C1031.13 611.878 1018.09 612.758 983.127 611.878C979.927 611.798 977.047 611.558 974.087 611.558V611.558Z" fill="black"/>
<path d="M697.999 716.007C696.164 712.653 693.509 709.596 690.32 707.163C687.13 704.73 683.527 703.013 679.897 702.197L365.124 632.032C361.907 631.316 358.773 631.333 355.989 632.083C353.205 632.832 350.855 634.291 349.14 636.335C347.425 638.378 346.396 640.946 346.142 643.818C345.887 646.689 346.415 649.779 347.678 652.823L471.437 950.63C472.866 954.066 475.182 957.319 478.134 960.038C481.087 962.756 484.564 964.836 488.188 966.053C491.812 967.269 495.445 967.576 498.695 966.939C501.945 966.302 504.686 964.746 506.623 962.44L697.637 734.798C699.575 732.49 700.633 729.519 700.697 726.206C700.761 722.894 699.828 719.367 697.999 716.007Z" fill="black"/>
</svg>
