<svg id="Capa_1" enable-background="new 0 0 512 512" height="512" viewBox="0 0 512 512" width="512" xmlns="http://www.w3.org/2000/svg"><g><path d="m265.589 340.056 24.265 101.57h218.24c2.157 0 3.906-1.749 3.906-3.906v-92.716c0 2.156-246.411-4.948-246.411-4.948z" fill="#78c2a4"/><path d="m237.332 336.208s-237.332 10.952-237.332 8.795v92.716c0 2.157 1.749 3.906 3.906 3.906h218.24z" fill="#78c2a4"/><path d="m3.906 70.374c-2.157 0-3.906 1.749-3.906 3.907v270.723c0 2.157 1.749 3.906 3.906 3.906h218.24l27.14-278.535h-245.38z" fill="#95d6a4"/><path d="m508.094 70.374h-218.24l-27.525 278.535h245.766c2.157 0 3.906-1.749 3.906-3.906v-270.722c-.001-2.158-1.75-3.907-3.907-3.907z" fill="#95d6a4"/><path d="m240.593 101.313h-163.998c-1.129 0-2.077.879-2.128 2.007-1.019 22.468-19.053 40.502-41.521 41.52-1.128.051-2.007.999-2.007 2.128v125.347c0 1.129.879 2.077 2.007 2.128 22.468 1.018 40.502 19.052 41.521 41.52.051 1.128.999 2.007 2.128 2.007h145.551z" fill="#ccf49f"/><path d="m479.054 144.841c-22.468-1.018-40.502-19.052-41.521-41.52-.051-1.128-.999-2.007-2.128-2.007h-163.839l18.288 216.657h145.551c1.129 0 2.077-.879 2.128-2.007 1.019-22.468 19.053-40.502 41.521-41.52 1.128-.051 2.007-.999 2.007-2.128v-125.348c0-1.129-.879-2.076-2.007-2.127z" fill="#ccf49f"/><path d="m69.343 297.367c3.001 5.581 4.82 11.891 5.124 18.596.051 1.128.999 2.007 2.128 2.007h160.737l-15.186-20.604h-152.803z" fill="#b3e59f"/><path d="m479.054 144.841c-22.468-1.018-40.502-19.052-41.521-41.52-.051-1.128-.999-2.007-2.128-2.007h-33.955c7.054 13.12 20.634 22.21 36.397 22.924 1.128.051 2.007.999 2.007 2.128v96.941c0 15.083-8.394 28.701-21.506 36.156-6.833 3.885-12.514 9.565-16.399 16.399-7.455 13.112-21.073 21.506-36.156 21.506h-88.793l12.854 20.604h145.551c1.129 0 2.077-.879 2.128-2.007 1.019-22.468 19.053-40.502 41.521-41.52 1.128-.051 2.007-.999 2.007-2.128v-125.349c0-1.129-.879-2.076-2.007-2.127z" fill="#b3e59f"/><g fill="#95d6a4"><path d="m122.194 222.975h-42.909c-4.378 0-7.927-3.549-7.927-7.927v-10.814c0-4.378 3.549-7.927 7.927-7.927h42.909c4.378 0 7.927 3.549 7.927 7.927v10.814c0 4.379-3.549 7.927-7.927 7.927z"/><path d="m389.806 222.975h42.909c4.378 0 7.927-3.549 7.927-7.927v-10.814c0-4.378-3.549-7.927-7.927-7.927h-42.909c-4.378 0-7.927 3.549-7.927 7.927v10.814c0 4.379 3.549 7.927 7.927 7.927z"/><path d="m222.146 134.341c-28.704 12.925-48.687 41.779-48.687 75.301s19.983 62.376 48.687 75.301l15.186-90.785z"/><path d="m289.854 134.341-12.854 50.232 12.854 100.369c28.704-12.925 48.687-41.779 48.687-75.301 0-33.521-19.983-62.375-48.687-75.3z"/></g><path d="m223.178 387.544h-196.393c-4.268 0-7.726-3.459-7.726-7.726s3.459-7.726 7.726-7.726h196.393c4.268 0 7.726 3.459 7.726 7.726s-3.458 7.726-7.726 7.726z" fill="#66b394"/><path d="m485.215 387.544h-196.393c-4.268 0-7.726-3.459-7.726-7.726s3.459-7.726 7.726-7.726h196.393c4.268 0 7.726 3.459 7.726 7.726.001 4.267-3.458 7.726-7.726 7.726z" fill="#66b394"/><path d="m223.178 418.449h-196.393c-4.268 0-7.726-3.459-7.726-7.726s3.459-7.726 7.726-7.726h196.393c4.268 0 7.726 3.459 7.726 7.726s-3.458 7.726-7.726 7.726z" fill="#66b394"/><path d="m485.215 418.449h-196.393c-4.268 0-7.726-3.459-7.726-7.726s3.459-7.726 7.726-7.726h196.393c4.268 0 7.726 3.459 7.726 7.726s-3.458 7.726-7.726 7.726z" fill="#66b394"/><path d="m289.854 348.909-33.854-28.62-33.854 28.62v98.872c0 1.373 1.113 2.486 2.486 2.486h62.735c1.373 0 2.486-1.113 2.486-2.486v-98.872z" fill="#ffe07d"/><path d="m289.854 348.909h-67.707v-284.691c0-1.373 1.113-2.486 2.486-2.486h62.735c1.373 0 2.486 1.113 2.486 2.486z" fill="#fff0af"/></g></svg>