<svg width="103" height="95" viewBox="0 0 103 95" fill="none" xmlns="http://www.w3.org/2000/svg">
<path d="M64.8475 49.3C64.7192 49.2954 64.5902 49.2929 64.4599 49.2929H11.3753C8.35837 49.2929 5.46502 50.4914 3.33174 52.6246C1.19846 54.7579 0 57.6513 0 60.6682V64.4599C0 79.4071 14.1053 94.794 37.9176 94.794C38.9887 94.7955 40.0594 94.7641 41.1283 94.7H43.9571C54.1651 93.7683 54.7613 93.618 60.9386 92.0603C61.377 91.9497 61.8435 91.8321 62.3436 91.7066C80.2331 87.2165 88.681 49.3 75.7607 49.3H64.8475Z" fill="#F0F0F0"/>
<path d="M37.9177 0C43.4487 0 48.7532 2.19718 52.6642 6.1082C56.5752 10.0192 58.7724 15.3237 58.7724 20.8547C58.7724 26.3857 56.5752 31.6902 52.6642 35.6012C48.7532 39.5122 43.4487 41.7094 37.9177 41.7094C32.3867 41.7094 27.0822 39.5122 23.1712 35.6012C19.2602 31.6902 17.063 26.3857 17.063 20.8547C17.063 15.3237 19.2602 10.0192 23.1712 6.1082C27.0822 2.19718 32.3867 0 37.9177 0Z" fill="#F0F0F0"/>
<path d="M68.9248 50.47L67.4617 61.6377M78.8218 46.0869L79.7972 38.6417L78.8218 46.0869ZM78.8218 46.0869C83.3901 46.7687 86.1652 47.049 87.9873 47.2877C91.6534 47.768 95.1977 49.179 96.1773 55.9336C97.1569 62.6883 96.6692 66.4108 96.0595 71.0641C95.4499 75.7173 91.6618 76.1676 87.9956 75.6873C84.3295 75.207 83.3728 67.5087 76.1394 66.561C68.9061 65.6134 65.9986 72.8054 62.3324 72.3251C58.6663 71.8448 55.122 70.4338 55.7317 65.7806C56.3413 61.1274 56.829 57.4048 59.5156 51.1305C62.2021 44.8561 65.9902 44.4058 69.6564 44.8861C71.4785 45.1248 74.2321 45.5689 78.8218 46.0869ZM87.6257 64.2794C88.1118 64.3431 88.6038 64.2081 88.9933 63.9041C89.3828 63.6001 89.6379 63.1519 89.7026 62.6583C89.7673 62.1646 89.6362 61.6659 89.3381 61.2718C89.0401 60.8777 88.5995 60.6205 88.1134 60.5568C87.6272 60.4931 87.1353 60.6282 86.7458 60.9322C86.3563 61.2362 86.1011 61.6843 86.0364 62.178C85.9718 62.6716 86.1029 63.1703 86.4009 63.5644C86.6989 63.9585 87.1395 64.2157 87.6257 64.2794ZM81.0249 57.7349C81.511 57.7986 82.003 57.6636 82.3925 57.3596C82.782 57.0556 83.0371 56.6074 83.1018 56.1138C83.1665 55.6201 83.0354 55.1214 82.7374 54.7273C82.4393 54.3332 81.9988 54.076 81.5126 54.0123C81.0264 53.9487 80.5345 54.0837 80.145 54.3877C79.7555 54.6917 79.5003 55.1398 79.4356 55.6335C79.371 56.1271 79.5021 56.6258 79.8001 57.0199C80.0982 57.414 80.5387 57.6712 81.0249 57.7349V57.7349ZM62.694 55.3333L73.6925 56.7743L62.694 55.3333Z" stroke="#0042EC" stroke-width="5"/>
</svg>
