<svg width="1025" height="952" viewBox="0 0 1025 952" fill="none" xmlns="http://www.w3.org/2000/svg">
<path d="M372.869 491.038C368.389 491.038 364.469 487.678 363.589 482.878C323.589 249.438 246.229 106.798 245.429 105.438C242.869 100.718 244.389 94.6383 248.869 91.9183C253.349 89.1983 259.109 90.7983 261.749 95.5183C262.549 96.9583 341.509 242.238 382.149 479.358C383.029 484.718 379.669 489.838 374.549 490.798C373.989 491.038 373.429 491.038 372.869 491.038V491.038Z" fill="#272727"/>
<path d="M474.869 491.038C470.389 491.038 466.469 487.678 465.589 482.878C425.589 249.438 348.229 106.798 347.429 105.438C344.869 100.718 346.389 94.6383 350.869 91.9183C355.349 89.1983 361.109 90.7983 363.749 95.5183C364.549 96.9583 443.509 242.238 484.149 479.358C485.029 484.718 481.669 489.838 476.549 490.798C475.989 491.038 475.429 491.038 474.869 491.038V491.038Z" fill="#272727"/>
<path d="M568.369 491.038C563.889 491.038 559.889 487.678 559.089 482.878C519.089 249.438 441.729 106.798 440.929 105.438C438.369 100.718 439.889 94.6383 444.369 91.9183C448.849 89.1983 454.609 90.7983 457.249 95.5183C458.049 96.9583 537.009 242.238 577.569 479.358C578.529 484.718 575.089 489.838 569.969 490.798C569.489 491.038 568.849 491.038 568.369 491.038V491.038Z" fill="#272727"/>
<path d="M181.003 491.036C180.443 491.036 179.883 490.957 179.323 490.877C174.203 489.917 170.763 484.797 171.723 479.437C212.363 242.316 291.323 97.0365 292.123 95.5965C294.683 90.8765 300.443 89.2765 305.003 91.9965C309.483 94.7165 311.003 100.796 308.443 105.516C307.643 106.876 230.283 249.516 190.283 482.957C189.483 487.677 185.483 491.036 181.003 491.036V491.036Z" fill="#272727"/>
<path d="M275.326 491.042C274.766 491.042 274.206 490.962 273.646 490.882C268.526 489.922 265.166 484.802 266.046 479.442C306.686 242.322 385.646 97.042 386.446 95.602C387.029 94.4942 387.833 93.517 388.807 92.7303C389.78 91.9437 390.905 91.3641 392.111 91.0271C393.316 90.6901 394.578 90.6027 395.819 90.7703C397.06 90.938 398.253 91.3571 399.326 92.002C403.806 94.722 405.406 100.802 402.766 105.522C401.966 106.882 324.606 249.522 284.606 482.962C283.726 487.682 279.726 491.042 275.326 491.042Z" fill="#272727"/>
<path d="M376.451 491.042C375.891 491.042 375.331 490.962 374.771 490.882C369.651 489.922 366.291 484.802 367.171 479.442C407.811 242.322 486.771 97.042 487.571 95.602C488.154 94.4942 488.957 93.517 489.931 92.7303C490.905 91.9437 492.03 91.3641 493.236 91.0271C494.441 90.6901 495.703 90.6027 496.944 90.7703C498.185 90.938 499.378 91.3571 500.451 92.002C504.931 94.722 506.531 100.802 503.891 105.522C503.091 106.882 425.731 249.522 385.731 482.962C384.931 487.682 380.931 491.042 376.451 491.042Z" fill="#272727"/>
<path d="M474.941 491.037C474.381 491.037 473.821 490.957 473.261 490.877C468.141 489.917 464.701 484.797 465.661 479.437C506.301 242.397 581.421 97.1969 582.221 95.7569C584.701 90.9569 590.461 89.1969 595.021 91.8369C599.581 94.4769 601.261 100.477 598.781 105.277C598.061 106.717 524.301 249.357 484.301 482.957C483.341 487.677 479.341 491.037 474.941 491.037V491.037Z" fill="#272727"/>
<path d="M568.378 491.036C567.818 491.036 567.258 490.957 566.698 490.877C561.578 489.917 558.138 484.797 559.098 479.437C599.738 242.316 678.698 97.0365 679.498 95.5965C682.138 90.8765 687.898 89.2765 692.378 91.9965C696.858 94.7165 698.378 100.796 695.818 105.516C695.018 106.876 617.658 249.516 577.658 482.957C576.778 487.677 572.778 491.036 568.378 491.036V491.036Z" fill="#272727"/>
<path d="M665.41 491.036C664.85 491.036 664.29 490.957 663.73 490.877C658.61 489.917 655.17 484.797 656.13 479.437C696.77 242.316 775.73 97.0365 776.53 95.5965C779.17 90.8765 784.85 89.2765 789.41 91.9965C793.89 94.7165 795.41 100.796 792.85 105.516C792.05 106.876 714.69 249.516 674.69 482.957C673.81 487.677 669.81 491.036 665.41 491.036V491.036Z" fill="#272727"/>
<path d="M762.441 491.045C761.881 491.045 761.321 490.965 760.761 490.885C755.641 489.925 752.201 484.805 753.161 479.445C781.081 316.485 826.921 197.445 851.801 141.045C854.041 136.085 859.561 133.925 864.281 136.245C869.001 138.565 871.081 144.405 868.921 149.365C844.441 204.965 799.241 322.165 771.721 482.965C770.841 487.685 766.921 491.045 762.441 491.045V491.045Z" fill="#272727"/>
<path d="M665.338 491.038C660.858 491.038 656.858 487.678 656.058 482.878C616.058 249.438 538.698 106.798 537.898 105.438C535.338 100.718 536.858 94.6383 541.338 91.9183C545.818 89.1983 551.578 90.7983 554.218 95.5183C555.018 96.9583 633.978 242.238 674.618 479.358C675.578 484.718 672.138 489.838 667.018 490.798C666.458 491.038 665.898 491.038 665.338 491.038V491.038Z" fill="#272727"/>
<path d="M762.463 491.038C757.983 491.038 753.983 487.678 753.183 482.878C713.183 249.438 635.823 106.798 635.023 105.438C632.463 100.718 633.983 94.6383 638.463 91.9183C642.943 89.1983 648.703 90.7983 651.343 95.5183C652.143 96.9583 731.103 242.238 771.743 479.358C772.703 484.718 769.263 489.838 764.143 490.798C763.583 491.038 763.023 491.038 762.463 491.038V491.038Z" fill="#272727"/>
<path d="M856.124 491.038C851.644 491.038 847.644 487.678 846.844 482.878C806.844 249.438 729.484 106.798 728.684 105.438C726.044 100.718 727.644 94.6383 732.124 91.9183C736.604 89.1983 742.364 90.7983 745.004 95.5183C745.804 96.9583 824.764 242.238 865.404 479.358C866.364 484.718 862.924 489.838 857.804 490.798C857.244 491.038 856.684 491.038 856.124 491.038V491.038Z" fill="#272727"/>
<path d="M275.244 491.038C270.764 491.038 266.844 487.678 265.964 482.878C225.964 249.438 148.604 106.798 147.804 105.438C145.244 100.718 146.764 94.6383 151.244 91.9183C155.724 89.1983 161.484 90.7983 164.124 95.5183C164.924 96.9583 243.884 242.238 284.524 479.358C285.404 484.718 282.044 489.838 276.924 490.798C276.364 491.038 275.804 491.038 275.244 491.038V491.038Z" fill="#272727"/>
<path d="M181.017 502.555C176.537 502.555 172.617 499.195 171.737 494.395C155.417 399.275 131.337 308.315 100.057 224.075C98.2166 219.035 100.617 213.275 105.417 211.275C110.297 209.275 115.737 211.835 117.577 216.875C149.257 302.315 173.657 394.475 190.217 490.875C191.177 496.235 187.737 501.355 182.617 502.315C182.137 502.475 181.577 502.555 181.017 502.555V502.555Z" fill="#272727"/>
<path d="M856.201 502.564C855.641 502.564 855.081 502.484 854.521 502.404C849.401 501.444 846.041 496.324 846.921 490.964C863.481 394.564 887.881 302.404 919.561 216.964C921.481 211.844 926.921 209.364 931.721 211.364C936.601 213.364 939.001 219.044 937.081 224.164C905.881 308.404 881.721 399.364 865.481 494.484C864.601 499.204 860.681 502.564 856.201 502.564Z" fill="#272727"/>
<path d="M775.815 508.961C762.855 508.401 752.775 496.961 753.335 483.361C764.295 213.121 857.895 63.6812 861.895 57.4412C869.175 46.0812 883.815 43.0412 894.535 50.5612C905.335 58.0812 908.215 73.4412 900.935 84.8012C900.055 86.2412 810.695 230.001 800.295 485.281C799.815 498.881 788.775 509.521 775.815 508.961Z" fill="black"/>
<path d="M262.222 508.963C275.182 508.403 285.262 496.963 284.702 483.363C273.742 213.123 180.142 63.603 176.142 57.363C168.862 46.003 154.222 42.9631 143.422 50.4831C132.622 58.0031 129.742 73.3631 137.022 84.7231C137.902 86.1631 227.262 229.923 237.662 485.203C238.222 498.883 249.182 509.523 262.222 508.963Z" fill="black"/>
<path d="M961.087 558.722C959.407 558.722 957.727 558.562 955.967 558.162C540.287 466.162 73.6473 557.362 68.9273 558.242C56.2073 560.802 43.8073 552.562 41.2473 539.762C38.6873 526.962 46.9273 514.642 59.7273 512.082C64.4473 511.122 540.927 418.002 966.127 512.162C978.847 514.962 986.847 527.522 983.967 540.242C982.843 545.475 979.959 550.165 975.795 553.528C971.631 556.891 966.44 558.724 961.087 558.722V558.722Z" fill="#272727"/>
<path d="M974.055 611.12C937.735 611.36 937.735 605.28 927.895 572.88L843.815 134.64V130.16C843.815 113.6 816.695 94 793.815 94H231.575C208.695 94 181.575 113.6 181.575 130.16V134.64L97.5753 572.96C91.8153 613.2 91.8153 613.2 42.4553 610.32C16.5353 608.8 -11.7847 611.2 5.09526 555.2L87.5753 125.2C113.015 1.52588e-05 164.935 0 231.655 0H793.895C860.615 0 909.815 1.52588e-05 937.975 125.2L1020.46 555.2C1031.1 611.44 1018.06 612.32 983.095 611.44C979.895 611.36 977.015 611.12 974.055 611.12V611.12Z" fill="black"/>
<path d="M316.082 716.328C318.03 713.05 320.756 710.011 323.966 707.537C327.177 705.063 330.751 703.248 334.306 702.287L642.477 619.52C645.627 618.675 648.659 618.531 651.314 619.1C653.969 619.668 656.168 620.933 657.723 622.786C659.277 624.638 660.141 627.024 660.24 629.737C660.339 632.451 659.67 635.412 658.291 638.367L523.269 927.484C521.71 930.82 519.302 934.028 516.306 936.761C513.309 939.493 509.839 941.647 506.27 942.988C502.701 944.329 499.169 944.806 496.058 944.368C492.946 943.93 490.373 942.593 488.617 940.502L315.468 734.152C313.712 732.06 312.84 729.293 312.949 726.151C313.057 723.009 314.14 719.612 316.082 716.328Z" fill="black"/>
</svg>
