<?xml version="1.0"?>
<svg xmlns="http://www.w3.org/2000/svg" xmlns:xlink="http://www.w3.org/1999/xlink" xmlns:svgjs="http://svgjs.com/svgjs" version="1.1" width="512" height="512" x="0" y="0" viewBox="0 0 512 512" style="enable-background:new 0 0 512 512" xml:space="preserve" class=""><g transform="matrix(-1,2.4492935982947064e-16,2.4492935982947064e-16,1,512.0000114440918,-2.2737367544323206e-13)"><g xmlns="http://www.w3.org/2000/svg"><path d="m366.82 441.448c-6.175-5.522-15.657-4.994-21.18 1.182l-32.583 36.435-45.163-18.738c-3.681-1.526-7.816-1.526-11.497 0l-45.163 18.738-32.584-36.435c-2.647-2.96-6.36-4.749-10.324-4.977l-48.815-2.794-13.549-46.986c-1.103-3.824-3.68-7.053-7.164-8.976l-42.798-23.624 8.176-48.187c.665-3.915-.251-7.935-2.545-11.176l-28.253-39.91 28.251-39.91c2.294-3.241 3.21-7.26 2.545-11.176l-8.176-48.188 42.798-23.624c3.484-1.923 6.061-5.152 7.164-8.976l13.55-46.986 48.815-2.793c3.964-.227 7.677-2.017 10.324-4.977l32.583-36.435 45.164 18.738c3.68 1.526 7.816 1.526 11.497 0l45.163-18.738 32.584 36.435c5.521 6.175 15.004 6.704 21.18 1.182 6.175-5.522 6.705-15.005 1.182-21.18l-39.68-44.37c-4.25-4.753-11.041-6.299-16.93-3.856l-49.248 20.433-49.248-20.433c-5.89-2.442-12.681-.897-16.93 3.856l-35.546 39.748-53.235 3.046c-6.357.364-11.792 4.701-13.556 10.819l-14.772 51.226-46.677 25.765c-5.582 3.082-8.606 9.355-7.54 15.641l8.919 52.571-30.802 43.516c-3.676 5.193-3.676 12.14 0 17.333l30.803 43.516-8.919 52.569c-1.067 6.287 1.958 12.56 7.54 15.642l46.677 25.765 14.772 51.226c1.764 6.118 7.199 10.456 13.556 10.819l53.235 3.047 35.547 39.748c2.907 3.251 7.002 5.002 11.185 5.001 1.932 0 3.884-.374 5.745-1.146l49.248-20.433 49.248 20.433c5.888 2.442 12.679.897 16.93-3.856l39.68-44.37c5.52-6.175 4.991-15.658-1.184-21.18z" fill="#000000" data-original="#000000" style="" class=""/><g><path d="m497 168.5h-39c-14.536-40.469-52.792-67.5-95.967-67.5h-77.033c-30.376 0-55 24.624-55 55v100c0 11.046 8.954 20 20 20 26.233 0 47.5-21.266 47.5-47.5v-42.5c0-3.839 1.464-7.677 4.393-10.606 5.857-5.858 15.355-5.858 21.213 0l10.077 10.077c15.774 15.774 36.982 25.569 59.29 25.53 8.186-.014 14.848 6.529 15.023 14.67.183 8.454-6.911 15.357-15.368 15.33-23.516-.076-45.903-7.387-64.629-20.867v8.368c0 12.349-2.918 24.024-8.078 34.396 12.643 11.655 20.579 28.342 20.579 46.852 0 23.295-12.566 43.702-31.269 54.825.83 4.098 1.269 8.336 1.269 12.675 0 12.388-3.564 23.954-9.703 33.75h89.655c26.748 0 51.727-13.368 66.564-35.624l1.251-1.876h39.233c8.284 0 15-6.716 15-15v-175c0-8.284-6.716-15-15-15z" fill="#000000" data-original="#000000" style="" class=""/><path d="m300.983 286.795c-13.639 11.943-31.474 19.205-50.983 19.205-20.461 0-38.081-12.359-45.813-30-2.686-6.129-4.187-12.891-4.187-20v-115h-36.25c-18.64 0-33.75 15.11-33.75 33.75 0 18.64 15.11 33.75 33.75 33.75h2c-18.64 0-33.75 15.11-33.75 33.75 0 18.64 15.11 33.75 33.75 33.75h-2c-18.64 0-33.75 15.11-33.75 33.75 0 18.64 15.11 33.75 33.75 33.75h30c-18.64 0-33.75 15.11-33.75 33.75 0 18.64 15.11 33.75 33.75 33.75h52.5c18.64 0 33.75-15.11 33.75-33.75 0-18.64-15.11-33.75-33.75-33.75h30c18.64 0 33.75-15.11 33.75-33.75 0-8.867-3.425-16.932-9.017-22.955z" fill="#000000" data-original="#000000" style="" class=""/></g></g></g></svg>
