<svg width="17" height="17" viewBox="0 0 17 17" fill="none" xmlns="http://www.w3.org/2000/svg">
<path fill-rule="evenodd" clip-rule="evenodd" d="M14.9219 6.99198C14.6849 6.99198 14.3009 7.06798 13.9279 7.19098C13.7878 6.15168 13.3764 5.16764 12.7349 4.33798C13.0889 4.16098 13.4149 3.94198 13.5829 3.77498C13.9949 3.36298 14.0169 2.71598 13.6339 2.33398C13.2489 1.94898 12.6029 1.97198 12.1919 2.38298C12.0229 2.55298 11.8019 2.88198 11.6259 3.23698C10.7944 2.59802 9.80815 2.19117 8.76794 2.05798C8.89394 1.68198 8.97094 1.29498 8.97094 1.05598C8.97094 0.473976 8.52994 0.000976562 7.98694 0.000976562C7.44394 0.000976562 7.00294 0.473976 7.00294 1.05598C7.00294 1.29598 7.08094 1.68598 7.20694 2.06298C6.16819 2.20035 5.18389 2.6087 4.35294 3.24698C4.17594 2.89298 3.95694 2.56398 3.78694 2.39498C3.37594 1.98298 2.72994 1.96098 2.34594 2.34498C1.96194 2.72898 1.98494 3.37498 2.39594 3.78598C2.56494 3.95498 2.89494 4.17598 3.24994 4.35198C2.61098 5.18339 2.20227 6.16843 2.06494 7.20798C1.69194 7.08298 1.30494 7.00698 1.06794 7.00698C0.485939 7.00698 0.0129395 7.44798 0.0129395 7.99098C0.0129395 8.53398 0.485939 8.97498 1.06794 8.97498C1.30494 8.97498 1.68994 8.89898 2.06294 8.77498C2.19946 9.81492 2.60863 10.8002 3.24894 11.631C2.89794 11.807 2.57294 12.025 2.40694 12.192C1.99494 12.604 1.97294 13.25 2.35594 13.633C2.74094 14.018 3.38694 13.995 3.79794 13.584C3.96494 13.417 4.18094 13.096 4.35794 12.747C5.19034 13.3851 6.17667 13.7919 7.21694 13.926C7.09394 14.296 7.01994 14.677 7.01994 14.912C7.01994 15.494 7.46094 15.967 8.00394 15.967C8.54694 15.967 8.98794 15.494 8.98794 14.912C8.98794 14.677 8.91394 14.297 8.79194 13.927C9.83215 13.7888 10.8174 13.3783 11.6479 12.737C11.8239 13.085 12.0389 13.407 12.2049 13.573C12.6169 13.985 13.2639 14.007 13.6479 13.624C14.0319 13.239 14.0089 12.593 13.5969 12.182C13.4309 12.016 13.1089 11.8 12.7609 11.624C13.4067 10.7958 13.8149 9.80747 13.9419 8.76498C14.3119 8.88598 14.6909 8.95998 14.9249 8.95998C15.5069 8.95998 15.9799 8.51898 15.9799 7.97598C15.9799 7.43298 15.5039 6.99198 14.9219 6.99198ZM11.6929 4.87898C12.3384 5.64387 12.7298 6.59063 12.8129 7.58798L9.27894 7.90898C9.26006 7.64878 9.15724 7.40174 8.98594 7.20498L11.6929 4.87898ZM8.83894 7.05798C8.63833 6.89055 8.39271 6.78618 8.13294 6.75798L8.41294 3.17598C9.4138 3.26293 10.3626 3.66005 11.1269 4.31198L8.83894 7.05798ZM7.62694 3.17398L7.92694 6.74798C7.64494 6.75898 7.38694 6.85498 7.17794 7.01198L4.87694 4.29898C5.65188 3.6431 6.6145 3.2493 7.62694 3.17398ZM4.30494 4.86998L7.01194 7.15798C6.82194 7.35898 6.70094 7.61898 6.67994 7.90598L3.17494 7.60698C3.25496 6.59865 3.65031 5.64107 4.30494 4.86998ZM6.68494 8.13198C6.71694 8.41398 6.84194 8.66798 7.03894 8.86098L4.32694 11.143C3.666 10.3775 3.26385 9.42268 3.17794 8.41498L6.68494 8.13198ZM7.20494 8.99898C7.40994 9.14498 7.65994 9.23198 7.93294 9.24198L7.63294 12.816C6.62864 12.7419 5.67266 12.3555 4.89894 11.711L7.20494 8.99898ZM8.41994 12.812L8.13194 9.23198C8.39394 9.20198 8.63094 9.09998 8.82094 8.94498L11.1399 11.665C10.3763 12.3235 9.42458 12.7249 8.41994 12.812ZM11.7039 11.098L8.96894 8.80598C9.14129 8.61477 9.24875 8.37395 9.27594 8.11798L12.8149 8.38798C12.7342 9.38456 12.346 10.3315 11.7039 11.098Z" fill="#ECECEC"/>
</svg>
